<?xml version="1.0" encoding="iso-8859-1"?>
<!-- Uploaded to: SVG Repo, www.svgrepo.com, Generator: SVG Repo Mixer Tools -->
<svg fill="#dddddd" height="800px" width="800px" version="1.1" id="Capa_1" xmlns="http://www.w3.org/2000/svg" xmlns:xlink="http://www.w3.org/1999/xlink"
	 viewBox="0 0 71.918 71.918" xml:space="preserve">
<g>
	<path d="M69.298,8.816l-6.197-6.199C61.413,0.929,59.168,0,56.781,0s-4.631,0.929-6.319,2.618L34.067,19.012
		c-3.484,3.484-3.484,9.153,0.001,12.638l0.977,0.977l-2.42,2.42l-0.977-0.977c-1.688-1.688-3.932-2.618-6.319-2.618
		s-4.632,0.93-6.32,2.618L2.614,50.464c-3.483,3.485-3.482,9.155,0.002,12.638l6.196,6.196c1.688,1.689,3.933,2.62,6.321,2.62
		c2.387,0,4.63-0.929,6.319-2.617l16.392-16.394c1.688-1.688,2.618-3.933,2.618-6.32s-0.93-4.632-2.618-6.319l-0.978-0.978
		l2.42-2.421l0.979,0.979c1.688,1.688,3.933,2.618,6.319,2.618s4.631-0.93,6.319-2.617l16.394-16.394
		c1.688-1.688,2.618-3.932,2.618-6.319S70.986,10.503,69.298,8.816z M33.603,44.511c0.555,0.555,0.861,1.292,0.861,2.076
		s-0.306,1.521-0.861,2.077L17.21,65.058c-1.109,1.109-3.043,1.11-4.154-0.001l-6.197-6.198c-1.145-1.145-1.145-3.008-0.001-4.153
		l16.394-16.392c0.555-0.555,1.293-0.86,2.078-0.86c0.784,0,1.521,0.305,2.077,0.86l0.977,0.977l-3.507,3.507l4.242,4.242
		l3.507-3.507L33.603,44.511z M65.056,17.212L48.662,33.605c-1.108,1.109-3.042,1.11-4.154,0l-0.978-0.978l5.199-5.199l-4.242-4.243
		l-5.2,5.2l-0.977-0.977c-1.145-1.146-1.146-3.008-0.001-4.153L54.703,6.861c0.555-0.555,1.293-0.86,2.077-0.86
		c0.785,0,1.523,0.306,2.078,0.86l6.197,6.198c0.555,0.555,0.86,1.292,0.86,2.077S65.61,16.658,65.056,17.212z"/>
</g>
</svg>