<?xml version="1.0" encoding="iso-8859-1"?>
<!-- Uploaded to: SVG Repo, www.svgrepo.com, Generator: SVG Repo Mixer Tools -->
<svg fill="#eeeeee" height="800px" width="800px" version="1.1" id="Capa_1" xmlns="http://www.w3.org/2000/svg" xmlns:xlink="http://www.w3.org/1999/xlink"
	 viewBox="0 0 95.6 95.6" xml:space="preserve">
<g>
	<path d="M65.199,0H30.4c-6.947,0-12.6,5.652-12.6,12.6v70.399c0,6.948,5.652,12.601,12.6,12.601h34.8
		c6.948,0,12.601-5.652,12.601-12.601V12.6C77.8,5.653,72.148,0,65.199,0z M71.8,82.999c0,3.64-2.961,6.601-6.601,6.601H30.4
		c-3.639,0-6.6-2.961-6.6-6.601V12.6c0-3.639,2.96-6.6,6.6-6.6h34.8c3.64,0,6.601,2.96,6.601,6.6L71.8,82.999L71.8,82.999z"/>
	<path d="M62.925,9.325H32.674c-1.695,0-3.074,1.315-3.074,2.93V69.44c0,1.614,1.379,2.93,3.074,2.93h30.251
		c1.696,0,3.075-1.315,3.075-2.93V12.255C66,10.641,64.621,9.325,62.925,9.325z M60,66.369H35.6V15.325H60V66.369z"/>
	<circle cx="47.801" cy="81.154" r="5.421"/>
</g>
</svg>